<svg width="32" height="32" viewBox="0 0 32 32" fill="none" xmlns="http://www.w3.org/2000/svg">
<rect width="32" height="32" rx="8" fill="#333230"/>
<path d="M14.4932 21.2005C15.4668 21.4525 15.4093 22.2833 14.4979 22.8231C13.5864 23.3645 11.8056 23.6632 10.3093 22.9242C8.6622 22.1106 7.78654 20.6374 8.22204 19.3119C8.81152 17.5166 8.68709 16.913 7.26706 15.4367C5.62928 13.7348 6.06011 12.274 6.99643 10.7712C8.02296 9.12679 10.1787 8.69587 10.9143 8.68187C11.65 8.66942 12.2831 9.17502 11.6516 10.0244C10.9159 10.9454 9.11637 13.6896 9.21124 15.1442C9.26568 15.9765 9.36989 16.7606 10.0465 17.7718C11.199 19.4924 12.8585 20.7774 14.4932 21.2005Z" fill="#FFFFFC"/>
<path d="M17.4795 21.2005C16.5058 21.4525 16.5634 22.2833 17.4748 22.8231C18.3862 23.3645 20.1671 23.6632 21.6618 22.9242C23.3089 22.1106 24.1846 20.6374 23.7491 19.3119C23.1596 17.5166 23.284 16.913 24.7041 15.4367C26.3418 13.7348 25.911 12.2724 24.9747 10.7712C23.9497 9.12679 21.794 8.69587 21.0599 8.68187C20.3242 8.66942 19.6912 9.17502 20.3226 10.0244C21.0583 10.9454 22.8579 13.6896 22.763 15.1442C22.7085 15.9765 22.6043 16.7606 21.9278 17.7718C20.7752 19.4924 19.1157 20.7774 17.481 21.2005H17.4795Z" fill="#FFFFFC"/>
<path d="M15.5493 11.6066L15.2631 12.3953C14.9334 13.3069 14.2148 14.0241 13.3034 14.3555L12.5148 14.6417C12.1182 14.7864 12.1182 15.348 12.5148 15.4911L13.3034 15.7774C14.2148 16.1072 14.9318 16.8259 15.2631 17.7376L15.5493 18.5263C15.6939 18.923 16.2554 18.923 16.3985 18.5263L16.6847 17.7376C17.0144 16.8259 17.733 16.1087 18.6444 15.7774L19.433 15.4911C19.8296 15.3465 19.8296 14.7848 19.433 14.6417L18.6444 14.3555C17.733 14.0257 17.016 13.3069 16.6847 12.3953L16.3985 11.6066C16.2539 11.2099 15.6924 11.2099 15.5493 11.6066Z" fill="#FFFFFC"/>
</svg>
